<?xml version="1.0" encoding="UTF-8" standalone="no"?>
<svg
   viewBox="0 0 40 40"
   version="1.1"
   id="svg2"
   sodipodi:docname="ai.svg"
   inkscape:version="1.3.2 (091e20e, 2023-11-25, custom)"
   xmlns:inkscape="http://www.inkscape.org/namespaces/inkscape"
   xmlns:sodipodi="http://sodipodi.sourceforge.net/DTD/sodipodi-0.dtd"
   xmlns="http://www.w3.org/2000/svg"
   xmlns:svg="http://www.w3.org/2000/svg">
  <defs
     id="defs2" />
  <sodipodi:namedview
     id="namedview2"
     pagecolor="#505050"
     bordercolor="#eeeeee"
     borderopacity="1"
     inkscape:showpageshadow="0"
     inkscape:pageopacity="0"
     inkscape:pagecheckerboard="0"
     inkscape:deskcolor="#505050"
     showgrid="false"
     inkscape:zoom="20.735906"
     inkscape:cx="13.141456"
     inkscape:cy="23.943974"
     inkscape:window-width="1716"
     inkscape:window-height="1237"
     inkscape:window-x="314"
     inkscape:window-y="39"
     inkscape:window-maximized="0"
     inkscape:current-layer="svg2" />
  <circle
     style="fill:#ffccaa;stroke-width:1.09394"
     id="path3"
     cx="20.013594"
     cy="19.82069"
     r="17.409416" />
  <ellipse
     cx="15"
     cy="15"
     fill="#000000"
     id="circle1"
     rx="2.2766171"
     ry="2.2283916"
     style="stroke-width:0.750792" />
  <circle
     cx="24.879436"
     cy="15.024113"
     fill="#000000"
     id="circle2"
     r="2.397181"
     style="stroke-width:0.79906" />
  <rect
     style="fill:#145d05"
     id="rect3"
     width="0.24112763"
     height="0.096451052"
     x="-3.6169145"
     y="10.079135"
     rx="5" />
  <ellipse
     style="fill:none;stroke:#000000;stroke-width:0.842929;stroke-opacity:1"
     id="path4"
     cx="14.949914"
     cy="15.046365"
     rx="4.8528628"
     ry="4.6599607" />
  <ellipse
     style="fill:none;stroke:#000000;stroke-width:0.842929;stroke-opacity:1"
     id="path4-0"
     cx="25.681025"
     cy="14.843017"
     rx="4.8528628"
     ry="4.6599607" />
  <path
     style="fill:#1a1a1a;fill-opacity:1;stroke:none;stroke-opacity:1"
     d="m 18.470377,11.767028 1.639668,-0.723383 h 0.819834 l 1.109187,0.626932 0.434029,-0.482255 -1.157412,-1.060962 -1.109187,-0.1446757 -0.916285,0.2893527 -1.253864,0.723383 z"
     id="path5" />
  <path
     style="fill:#1a1a1a;fill-opacity:1;stroke:none;stroke-opacity:1"
     d="M 10.947194,12.39396 4.9672292,10.657841 4.581425,10.99542 10.56139,12.82799 Z"
     id="path6" />
  <path
     style="fill:#1a1a1a;fill-opacity:1;stroke:none;stroke-opacity:1"
     d="m 29.366627,12.302089 5.979965,-1.736119 0.385804,0.337579 -5.979965,1.83257 z"
     id="path6-4" />
  <path
     style="fill:#1a1a1a;fill-opacity:1;stroke:none;stroke-opacity:1"
     d="m 12.104607,26.765167 3.23111,1.543217 2.845306,0.675157 c 0,0 2.845306,0.04823 3.134659,0.04823 0.289354,0 1.929021,-0.192902 2.70063,-0.578707 0.771608,-0.385804 2.025472,-1.494991 2.025472,-1.494991 l 0.289353,0.530481 -1.591442,1.109187 c 0,0 -1.446766,0.675157 -1.639668,0.723383 -0.192902,0.04823 -2.025472,0.192902 -2.025472,0.192902 l -2.652404,-0.04823 c 0,0 -1.687894,-0.385804 -2.121923,-0.482255 -0.43403,-0.09645 -1.639668,-0.337579 -1.639668,-0.337579 l -2.2666,-0.916285 z"
     id="path7" />
  <path
     id="path8"
     style="fill:#552200;fill-opacity:1;stroke:none;stroke-opacity:1"
     d="M 18.373047 21.171875 L 13.888672 21.460938 L 11.669922 21.990234 C 11.669922 21.990234 10.94635 23.196372 10.560547 23.4375 C 10.174743 23.678627 9.9836053 25.173392 9.453125 25.607422 C 8.9226437 26.04145 7.5225226 27.536362 7.1367188 27.632812 C 6.7509149 27.729263 5.7867971 26.571641 5.4492188 25.896484 C 5.1116404 25.221327 3.7617187 23.388672 3.7617188 23.388672 L 2.4589844 22.666016 L 3.6660156 26.476562 L 5.6914062 30.189453 L 7.3789062 32.408203 L 9.8378906 34.625 C 9.8378906 34.625 10.947041 35.25366 13.117188 36.796875 C 15.287334 38.340089 16.830078 38.628906 16.830078 38.628906 L 16.734375 39.496094 L 22.810547 39.351562 L 22.570312 38.580078 L 23.775391 37.568359 L 25.078125 36.892578 L 30.238281 34.722656 L 34.578125 29.996094 L 36.265625 28.066406 L 37.085938 24.498047 L 37.375 22.761719 L 36.169922 23.148438 L 33.708984 26.041016 L 32.310547 27.488281 L 30.238281 27.730469 C 30.238281 27.730469 29.755402 26.185837 29.5625 25.896484 C 29.369598 25.607132 28.646027 23.485123 28.453125 23.388672 C 28.260222 23.292222 26.138962 21.798226 25.849609 21.75 C 25.560257 21.70178 23.341318 21.412857 22.521484 21.316406 C 21.701651 21.219956 18.373047 21.171875 18.373047 21.171875 z M 20.248047 23 C 21.119025 23.024398 23.322216 23.257402 23.533203 23.341797 C 23.774331 23.438247 26.089844 24.208984 26.089844 24.208984 C 26.089844 24.208984 27.150391 26.234833 27.150391 26.427734 C 27.150391 26.620637 26.573013 28.695022 26.476562 28.984375 C 26.380113 29.273729 25.656083 32.022545 25.173828 32.263672 C 24.691574 32.5048 23.051965 33.612533 22.521484 33.708984 C 21.991004 33.805434 20.399933 34.577812 20.207031 34.240234 C 20.014128 33.902656 19.580224 32.262757 19.435547 31.876953 C 19.290871 31.49115 18.855469 30.091797 18.855469 30.091797 L 18.326172 30.333984 L 17.410156 32.263672 C 17.410156 32.263672 17.313539 33.806641 16.927734 33.806641 C 16.541931 33.806641 14.660446 33.902344 14.371094 33.902344 C 14.081741 33.902344 12.248483 33.179978 11.814453 32.890625 C 11.380424 32.601272 10.753906 31.298828 10.753906 31.298828 L 10.753906 29.513672 L 11.958984 26.234375 L 13.648438 24.257812 L 16.685547 23.630859 C 16.685547 23.630859 19.482589 23.052132 19.964844 23.003906 C 20.025126 22.997879 20.123621 22.996515 20.248047 23 z " />
  <path
     id="path10"
     style="fill:#774e33;fill-opacity:1;stroke:none;stroke-width:1.06879;stroke-opacity:1"
     d="M 20.114367,1.880838 A 15.868785,12.347073 0 0 0 5.5771891,9.3145298 L 34.787899,9.5293182 A 15.868785,12.347073 0 0 0 20.114367,1.880838 Z" />
</svg>
