<?xml version="1.0" encoding="UTF-8" standalone="no"?>
<svg
   viewBox="0 0 30 30"
   version="1.1"
   id="svg3"
   sodipodi:docname="helperAI.svg"
   inkscape:version="1.3.2 (091e20e, 2023-11-25, custom)"
   xmlns:inkscape="http://www.inkscape.org/namespaces/inkscape"
   xmlns:sodipodi="http://sodipodi.sourceforge.net/DTD/sodipodi-0.dtd"
   xmlns="http://www.w3.org/2000/svg"
   xmlns:svg="http://www.w3.org/2000/svg">
  <defs
     id="defs3" />
  <sodipodi:namedview
     id="namedview3"
     pagecolor="#505050"
     bordercolor="#eeeeee"
     borderopacity="1"
     inkscape:showpageshadow="0"
     inkscape:pageopacity="0"
     inkscape:pagecheckerboard="0"
     inkscape:deskcolor="#505050"
     inkscape:zoom="39.1"
     inkscape:cx="14.987212"
     inkscape:cy="15"
     inkscape:window-width="2560"
     inkscape:window-height="1369"
     inkscape:window-x="-8"
     inkscape:window-y="-8"
     inkscape:window-maximized="1"
     inkscape:current-layer="svg3" />
  <circle
     cx="15"
     cy="15"
     r="14"
     fill="#4CAF50"
     id="circle1"
     style="fill:#e9c6af" />
  <circle
     cx="10.179029"
     cy="10.869565"
     r="2"
     fill="#ffffff"
     id="circle2"
     style="fill:#1a1a1a" />
  <circle
     cx="19.258312"
     cy="10.920716"
     r="2"
     fill="#FFF"
     id="circle3"
     style="fill:#1a1a1a" />
  <path
     d="m 9.752583,18.696376 q 5.093964,3.806956 10.187928,0"
     stroke="#FFF"
     stroke-width="1.76148"
     fill="none"
     id="path3"
     style="fill:none;stroke:#000000;stroke-width:1.061;stroke-dasharray:none;stroke-opacity:1" />
  <path
     id="path10"
     style="fill:#e0ad8b;fill-opacity:1;stroke:none;stroke-width:1.061;stroke-miterlimit:0;stroke-dasharray:none;stroke-opacity:1"
     d="M 11.599609 14.832031 C 11.263582 14.863151 10.846736 15.130295 10.332031 15.242188 C 9.7437963 15.370064 9.693439 15.753827 9.4121094 16.035156 C 9.1307798 16.316486 8.6693419 17.187156 8.2089844 17.775391 C 7.7486267 18.363625 8.0314343 19.053209 8.0058594 19.257812 C 7.9802839 19.462416 7.5957031 20.5625 7.5957031 20.5625 C 7.5957031 20.5625 6.0092909 19.79566 5.8046875 19.693359 C 5.6000841 19.591057 4.1685228 18.362622 4.0917969 18.183594 C 4.0917969 18.183594 3.1705559 18.210379 2.8125 18.287109 C 2.4544443 18.363835 2.5065986 18.849715 2.4042969 19.105469 C 2.3019952 19.361223 2.1738281 20.460488 2.1738281 20.792969 C 2.1738281 21.125449 2.4799143 21.38078 2.5566406 21.662109 C 2.6333668 21.943439 3.1967112 22.813714 3.2734375 22.916016 C 3.3501637 23.018318 3.8613281 23.580078 3.8613281 23.580078 C 3.8613281 23.580078 4.5012139 24.399282 4.6035156 24.552734 C 4.7058173 24.706186 5.2430319 25.16686 5.3964844 25.320312 C 5.5499369 25.473765 6.1897431 25.881703 6.4199219 26.035156 C 6.6501007 26.188608 7.7496559 27.136455 8.3378906 27.443359 C 8.9261253 27.750265 9.4116602 27.953969 9.7441406 28.107422 C 10.076621 28.260875 11.125106 28.669179 11.380859 28.771484 C 11.636614 28.873785 13.043259 29.079899 13.273438 29.105469 C 13.503616 29.131041 14.832797 29.052914 15.267578 29.027344 C 15.702361 29.001774 16.316882 29.002142 16.521484 28.976562 C 16.726088 28.950988 17.979175 28.746462 18.158203 28.695312 C 18.337231 28.644162 19.284521 28.311285 19.642578 28.208984 C 20.000634 28.106682 21.253167 27.621652 21.355469 27.544922 C 21.457771 27.468196 23.427734 26.265625 23.427734 26.265625 L 25.523438 24.246094 C 25.523438 24.246094 26.444493 22.813583 26.828125 22.123047 C 27.211756 21.432511 27.698585 20.946951 28.056641 20.179688 C 28.414696 19.412425 27.647198 18.951172 27.007812 18.951172 C 26.368426 18.951172 26.292204 20.000583 25.857422 20.460938 C 25.42264 20.921295 25.192225 20.868981 24.808594 21.431641 C 24.424962 21.9943 23.707745 21.790826 23.068359 21.816406 C 22.428974 21.841981 22.454788 21.68758 22.224609 21.40625 C 21.99443 21.12492 21.968929 20.766998 21.943359 20.306641 C 21.917784 19.846283 21.662667 19.412454 21.585938 18.824219 C 21.509211 18.235984 21.457956 17.902688 21.330078 17.314453 C 21.202201 16.726219 20.742452 16.162743 20.435547 15.804688 C 20.128641 15.446626 19.539986 15.421875 19.412109 15.421875 C 19.284232 15.421875 17.75 15.140625 17.75 15.140625 C 17.75 15.140625 16.982212 15.063425 16.470703 14.935547 C 15.959195 14.807673 14.501953 15.013672 14.501953 15.013672 L 13.349609 15.140625 C 13.349609 15.140625 12.096338 14.885134 11.738281 14.833984 C 11.693524 14.827591 11.647613 14.827586 11.599609 14.832031 z M 16.798828 16.515625 C 17.248396 16.521621 17.679219 16.559294 18.082031 16.597656 C 18.619116 16.648807 19.334749 16.802176 19.769531 16.878906 C 20.204314 16.955633 20.79186 17.748892 20.945312 17.902344 C 21.098764 18.055797 21.228147 19.001874 21.279297 19.283203 C 21.330447 19.564533 21.330257 19.872783 21.304688 20.179688 C 21.279112 20.486593 20.767947 20.818649 20.716797 21.048828 C 20.665646 21.279007 20.152793 21.559253 19.820312 21.738281 C 19.487832 21.91731 18.771484 22.480469 18.771484 22.480469 C 18.771484 22.480469 17.492821 22.711117 17.134766 22.685547 C 16.77671 22.659972 15.831267 22.454418 15.396484 22.275391 C 14.961703 22.096362 14.603516 22.046875 14.603516 22.046875 C 14.603516 22.046875 13.14601 22.480279 12.941406 22.505859 C 12.736803 22.531434 9.9483744 22.174568 9.7949219 22.072266 C 9.6414693 21.969964 8.6953125 21.279297 8.6953125 21.279297 L 8.3378906 20.126953 C 8.3378906 20.126953 8.4646594 18.952281 8.4902344 18.798828 C 8.5158097 18.645375 8.9008655 17.851642 9.1054688 17.570312 C 9.3100721 17.288984 9.5898438 16.931641 9.5898438 16.931641 L 10.076172 17.058594 L 11.509766 16.957031 L 13.09375 16.777344 L 13.605469 16.597656 C 13.605469 16.597656 15.727986 16.547064 16.341797 16.521484 C 16.495249 16.515092 16.648972 16.513626 16.798828 16.515625 z " />
  <path
     style="fill:#a45c2c;fill-opacity:1;stroke:none;stroke-width:1.061;stroke-miterlimit:0;stroke-dasharray:none;stroke-opacity:1"
     d="M 2.1994885,22.071611 C 2.3529412,21.943734 3.9130435,20.025575 4.168798,19.43734 4.4245524,18.849105 4.5268542,17.41688 4.6547315,17.13555 4.7826087,16.85422 5.0127877,14.450128 4.8849105,13.938619 4.7570333,13.42711 4.6547315,13.043478 4.6035806,12.506394 4.5524296,11.969309 4.5268546,11.4578 4.5268546,10.716112 c 0,-0.7416874 0.2813299,-2.2250634 0.2813299,-2.2250634 0,0 1.2276215,-1.4066496 1.5856778,-2.0716112 C 6.7519182,5.7544757 8.1585678,5.1918159 8.6445013,4.2966752 9.1304348,3.4015346 9.1560102,3.2480819 9.4373402,2.8132993 9.7186701,2.3785167 9.8465473,2.0460358 9.8465473,2.0460358 c 0,0 -0.1023018,0.7161126 0,1.1253197 0.1023018,0.4092072 0,0.4092072 0.6649617,1.2787724 0.664962,0.8695652 0.792839,1.3810742 1.40665,1.5601023 0.61381,0.1790282 0.818414,0.2813299 1.329923,0.511509 0.511509,0.230179 0.434783,0.3836317 1.841432,0.6649616 1.40665,0.2813299 1.023018,0.1534527 2.404092,0.5882353 1.381074,0.4347826 1.662404,0.5626598 2.097187,0.7928389 0.434783,0.230179 -0.358056,0.051151 1.023018,0.4347826 1.381074,0.3836317 0.946291,0.3069054 2.404092,0.4859335 1.4578,0.1790281 2.071611,0.4092071 2.250639,0.4092071 0.179028,0 1.329924,0.7416878 1.457801,0.8951408 0.127877,0.153452 0.537084,1.227621 0.690537,1.611253 0.153453,0.383632 0.690537,0.741688 0.588235,2.30179 -0.102302,1.560102 -0.02557,3.14578 -0.664961,4.475704 -0.639387,1.329923 -0.613811,0.792838 -0.971867,2.762148 -0.358057,1.969309 -0.485934,2.378516 -0.485934,2.787724 0,0.409207 0.613811,-1.432225 -0.153453,1.841432 -0.767263,3.273657 -0.639386,3.529412 -0.61381,3.375959 0.02557,-0.153453 0.05115,0.127877 0.511509,-0.204604 0.460358,-0.33248 0.61381,-0.255754 0.920716,-1.432225 0.306905,-1.17647 0.639386,-2.122762 0.664961,-2.327365 0.02558,-0.204604 -0.127877,1.534526 0.05115,1.611253 0.179028,0.07673 0.358056,0.409207 0.588236,1.074169 0.230179,0.664961 0.537084,1.023017 0.716112,0.690537 0.179028,-0.332481 0.537084,-1.023018 0.255755,-1.432225 -0.28133,-0.409208 -0.588236,-0.664962 -0.613811,-1.483376 -0.02558,-0.818415 0.02557,-1.841433 0.230179,-1.892583 0.204603,-0.05115 0.460358,0.434782 0.460358,0.537084 0,0.102302 0.02557,0.153453 0.02557,0.153453 0,0 0.613811,-0.485934 0.434783,-1.764706 -0.179028,-1.278773 -0.716113,-1.253197 -0.588235,-1.918159 0.127877,-0.664961 0.153452,-1.023018 0.153452,-1.483376 0,-0.460358 0.230179,0.511509 0.230179,-0.869565 0,-1.381074 0.127878,-1.176471 0.127878,-2.173913 0,-0.997443 0.153452,-0.716113 -0.102302,-1.739131 -0.255755,-1.023017 -0.230179,-0.89514 0.02557,-1.994884 0.255755,-1.099745 -0.127877,-1.585678 -0.153452,-2.071612 C 29.028133,10.741688 28.849105,10.997442 28.695652,9.9488491 28.5422,8.9002558 28.82353,9.1304348 28.030691,8.0306906 27.237852,6.9309463 27.058824,6.9053709 26.342711,5.9590793 25.626599,5.0127878 25.012788,4.6035806 24.680307,4.0664962 24.347826,3.5294118 24.450128,3.657289 23.836317,3.3248082 23.222506,2.9923274 23.017903,3.1202046 22.122762,2.5319693 21.227622,1.9437341 20.613811,2.0460358 20.204604,1.713555 19.795397,1.3810742 20.537085,1.4066496 19.181586,1.0997442 17.826087,0.79283887 17.41688,0.69053708 16.828645,0.76726343 c -0.588236,0.0767263 -0.537085,0 -1.278773,0.10230179 -0.741688,0.10230179 -1.636828,0.23017898 -2.276215,0.15345268 -0.639386,-0.0767263 -0.61381,-0.25575447 -1.406649,-0.0255755 -0.792839,0.230179 -0.741688,0.230179 -1.713555,0.3836317 -0.9718673,0.1534527 -0.8695655,0 -1.5601026,0.3836318 C 7.9028133,2.1483376 7.6214834,2.225064 6.8797954,2.685422 6.1381074,3.1457801 6.0613811,3.0434783 5.4731458,3.7851663 4.8849105,4.5268543 4.7314578,4.8337596 4.2710997,5.5242967 3.8107417,6.2148338 3.4782609,6.4961637 3.0946292,7.0332481 2.7109974,7.5703325 2.8644501,7.7493607 2.0716113,8.5421995 1.2787724,9.3350384 1.0485934,9.5140665 1.0741688,9.9232737 c 0.025575,0.4092073 0.230179,0.4347823 -0.10230179,1.7391303 -0.33248082,1.304348 -0.38363171,4.143222 -0.38363171,4.60358 0,0.460359 -0.10230179,0.920717 -0.23017903,1.508952 -0.12787724,0.588235 -0.33248082,0.460358 -0.25575447,1.534527 0.0767263,1.074169 0.25575447,1.687979 0.38363171,2.506394 0.12787724,0.818414 0.15345268,0.690537 0.15345268,1.355498 0,0.664962 -0.0511509,0.869566 -0.12787723,1.355499 -0.0767263,0.485934 0.0255754,3.375959 0.0255754,3.375959 0,0 -0.12787723,-0.358056 -0.17902813,0.818414 -0.0511509,1.176471 -0.20460358,1.508952 -0.20460358,1.381075 0,-0.127878 0.28132992,0.28133 0.89514065,-0.971867 0.6138108,-1.253197 0.6138108,-2.148338 0.6138108,-2.148338 0,0 0.230179,0.639386 0.6649616,1.176471 0.4347826,0.537084 0.4347826,0.306905 0.8439898,0.562659 0.4092072,0.255755 1.2276215,0.358057 0.6905371,-0.920716 C 3.3248082,26.521739 2.6598466,26.240409 3.1202046,25.831202 3.5805627,25.421995 4.9872123,26.521739 4.3478261,25.396419 3.7084399,24.2711 3.8363171,24.450128 3.1202046,23.529412 2.4040921,22.608695 2.2762148,22.659846 2.2762148,22.480818 c 0,-0.179028 -0.1023018,-0.485933 -0.076726,-0.409207 z"
     id="path9" />
</svg>
